<svg width="336" height="118" viewBox="0 0 336 118" fill="none" xmlns="http://www.w3.org/2000/svg">
<g clip-path="url(#clip0_4105_585)">
<path d="M4.0295 12.3528C4.3109 12.3573 4.59038 12.3058 4.85167 12.2012C5.11295 12.0966 5.35081 11.941 5.5514 11.7436C5.75198 11.5462 5.91128 11.3108 6.02002 11.0513C6.12875 10.7917 6.18475 10.5131 6.18475 10.2316C6.18475 9.95017 6.12875 9.67155 6.02002 9.41196C5.91128 9.15237 5.75198 8.91702 5.5514 8.7196C5.35081 8.52218 5.11295 8.36665 4.85167 8.26206C4.59038 8.15747 4.3109 8.10591 4.0295 8.11039C2.87051 8.12794 1.94006 9.07254 1.94006 10.2317C1.94006 11.3909 2.87051 12.3353 4.0295 12.3528ZM36.5178 10.5548C36.7987 10.5584 37.0775 10.5062 37.3381 10.4012C37.5986 10.2962 37.8357 10.1405 38.0356 9.94314C38.2355 9.74577 38.3942 9.51066 38.5025 9.25146C38.6109 8.99227 38.6666 8.71414 38.6666 8.43322C38.6665 8.1523 38.6107 7.87419 38.5023 7.61502C38.394 7.35585 38.2352 7.12078 38.0352 6.92346C37.8353 6.72615 37.5981 6.5705 37.3376 6.46557C37.077 6.36063 36.7982 6.30849 36.5173 6.31218C35.3583 6.32973 34.428 7.27451 34.428 8.43367C34.4282 9.59284 35.3588 10.5374 36.5178 10.5548Z" fill="#FF598B"/>
<path d="M38.2393 37.8084C38.5208 37.8129 38.8002 37.7613 39.0615 37.6566C39.3228 37.552 39.5606 37.3965 39.7612 37.199C39.9617 37.0016 40.121 36.7662 40.2297 36.5066C40.3384 36.247 40.3944 35.9684 40.3943 35.6869C40.3943 35.4055 40.3383 35.1269 40.2295 34.8673C40.1207 34.6077 39.9614 34.3724 39.7608 34.175C39.5602 33.9776 39.3223 33.8221 39.061 33.7175C38.7997 33.613 38.5202 33.5615 38.2388 33.566C37.0798 33.5835 36.1496 34.5283 36.1497 35.6875C36.1499 36.8466 37.0804 37.791 38.2393 37.8084ZM12.6935 4.24281C12.9744 4.24646 13.2532 4.19428 13.5138 4.08931C13.7744 3.98435 14.0115 3.82867 14.2114 3.63133C14.4113 3.43398 14.5701 3.1989 14.6784 2.93972C14.7868 2.68053 14.8426 2.40241 14.8426 2.12149C14.8426 1.84057 14.7868 1.56245 14.6784 1.30327C14.5701 1.04409 14.4113 0.809 14.2114 0.611656C14.0115 0.414312 13.7744 0.258638 13.5138 0.15367C13.2532 0.0487018 12.9744 -0.00347109 12.6935 0.000179118C11.5343 0.0179105 10.6041 0.962328 10.6041 2.12149C10.6041 3.28066 11.5343 4.22525 12.6935 4.24281Z" fill="#FFCD59"/>
<path d="M25.2439 18.9743C24.9923 18.9743 24.744 18.9169 24.5179 18.8066C24.2918 18.6963 24.0937 18.5359 23.9388 18.3377C23.7839 18.1395 23.6762 17.9086 23.6238 17.6625C23.5715 17.4164 23.5758 17.1616 23.6366 16.9175C23.7028 16.6521 23.7569 16.3856 23.7976 16.1196C23.3005 16.3248 22.771 16.4403 22.2336 16.4606C21.2702 16.4973 20.4077 16.3349 19.6725 15.9788C18.952 15.6336 18.352 15.0796 17.9505 14.3889C17.1598 13.0184 17.228 11.2155 18.1232 9.79576C18.9766 8.4403 20.4222 7.70669 21.9893 7.82651C23.1965 7.9209 24.2545 8.37296 25.1018 9.14866C25.2562 8.71319 25.4039 8.24734 25.5448 7.7511C26.4104 4.69594 26.6962 1.62806 26.6985 1.59707C26.7181 1.38053 26.7802 1.16996 26.8812 0.97741C26.9821 0.784857 27.1201 0.614092 27.2871 0.474873C27.4541 0.335654 27.6469 0.230711 27.8545 0.16604C28.0621 0.101369 28.2804 0.078238 28.4969 0.0979694C28.9342 0.137959 29.3377 0.349889 29.6188 0.687196C29.8999 1.0245 30.0355 1.4596 29.996 1.89689C29.984 2.03427 29.6794 5.30525 28.7301 8.6554C28.2508 10.347 27.6845 11.7765 27.043 12.9177C27.0902 13.1721 27.1279 13.4331 27.156 13.7008C27.2896 14.9923 27.1832 16.3827 26.849 17.7208C26.759 18.0785 26.5523 18.396 26.2616 18.623C25.9708 18.85 25.6127 18.9738 25.2439 18.9743ZM21.6397 11.1245C21.4685 11.1245 21.1669 11.1747 20.924 11.5598C20.6916 11.9287 20.6461 12.4325 20.8187 12.7318C21.0483 13.13 21.7239 13.1647 22.1065 13.1502C22.5406 13.1337 22.9855 12.8615 23.4208 12.3654C23.3483 12.2135 23.2626 12.0684 23.1646 11.9316C22.8052 11.4324 22.3502 11.1772 21.7322 11.1288C21.7089 11.1274 21.6775 11.1245 21.6397 11.1245Z" fill="#59B2FF"/>
<path d="M20.4825 23.5107C13.6151 18.0974 6.43717 15.7521 4.45018 18.2726C4.26322 18.5123 4.12581 18.7868 4.04594 19.0802C4.03377 19.1158 4.02443 19.1523 4.018 19.1894V19.1937C3.99138 19.3068 3.9715 19.4212 3.95836 19.5371L0.070362 42.3009C-0.552384 45.9568 3.06678 48.8839 6.51221 47.5116L27.5966 39.1101C27.9684 38.9622 28.8834 38.397 29.1338 38.085C29.2002 38.02 29.2621 37.9512 29.3196 37.8784C31.3062 35.3575 27.3494 28.9254 20.4825 23.5101V23.5107Z" fill="#FFCD59"/>
<path d="M29.3173 37.8795C31.3053 35.3577 27.35 28.9243 20.4826 23.5107C13.6152 18.0969 6.43633 15.7526 4.44845 18.2744C2.46057 20.7962 6.41555 27.2296 13.283 32.6432C20.1504 38.057 27.3292 40.4013 29.3173 37.8795Z" fill="#FFCD59"/>
<path d="M28.1183 36.4109C29.7496 34.3411 26.1561 28.7876 20.0914 24.0068C14.0268 19.2256 7.78748 17.0278 6.15638 19.097C4.52474 21.1667 8.11829 26.7202 14.1829 31.5011C20.2474 36.2823 26.4869 38.4806 28.1183 36.4109Z" fill="#FFCD59"/>
<path d="M21.2302 25.9795C21.5111 25.9831 21.7899 25.9309 22.0505 25.826C22.311 25.721 22.5482 25.5653 22.7481 25.368C22.948 25.1706 23.1068 24.9356 23.2151 24.6764C23.3234 24.4172 23.3792 24.1391 23.3792 23.8582C23.3792 23.5772 23.3234 23.2991 23.2151 23.0399C23.1068 22.7807 22.948 22.5457 22.7481 22.3483C22.5482 22.151 22.311 21.9953 22.0505 21.8903C21.7899 21.7854 21.5111 21.7332 21.2302 21.7368C20.0712 21.7544 19.1407 22.699 19.1407 23.8582C19.1407 25.0173 20.0712 25.9619 21.2302 25.9795Z" fill="#59B2FF"/>
<path d="M32.6708 21.852L32.6864 21.8346C32.7057 21.8139 32.7415 21.7755 32.7931 21.7234C32.9538 21.5636 33.1211 21.4106 33.2946 21.2649C33.9322 20.7312 34.6289 20.2727 35.3711 19.8983C37.1851 18.9804 39.886 18.2314 43.4282 19.0481C44.4926 19.2935 45.5541 18.6297 45.7997 17.5655C46.0451 16.5013 45.3813 15.4395 44.3171 15.1942C39.7316 14.1369 36.0859 15.1035 33.5848 16.3702C32.5692 16.8826 31.6162 17.5106 30.7447 18.2416C30.4832 18.4614 30.2313 18.6924 29.9898 18.934C29.8961 19.0282 29.8047 19.1246 29.7157 19.2233L29.6942 19.2475L29.6867 19.2561L29.6831 19.26L29.6819 19.2614C29.6814 19.2623 29.6803 19.2632 31.1794 20.5528L29.6803 19.2632C28.9859 20.091 29.0842 21.3229 29.9011 22.03C30.718 22.7371 31.9511 22.658 32.6708 21.852ZM13.08 7.74591C12.9324 7.51168 12.7402 7.30885 12.5141 7.14905C12.2881 6.98925 12.0327 6.87562 11.7627 6.81466C11.4927 6.7537 11.2133 6.74661 10.9405 6.79381C10.6677 6.841 10.407 6.94154 10.1731 7.08967C9.93912 7.23735 9.73652 7.42969 9.57688 7.65569C9.41725 7.88169 9.30371 8.13694 9.24275 8.40684C9.18179 8.67673 9.17461 8.956 9.22161 9.22867C9.26862 9.50135 9.36889 9.76209 9.51669 9.996C9.59317 10.1183 11.1605 12.6575 11.4825 16.135C11.8103 19.6682 10.7722 22.9159 8.39246 25.8281C9.19377 26.8465 10.1581 27.905 11.2596 28.9637C12.7837 27.2024 13.9305 25.3096 14.684 23.307C15.6109 20.8433 15.9388 18.2309 15.6593 15.5432C15.2138 11.2673 13.3536 8.18024 13.08 7.74591Z" fill="#FF598B"/>
<path d="M39.4463 28.0438C40.5213 28.322 41.2811 28.6252 41.6094 28.7663C41.9931 29.0018 42.4417 29.1092 42.8905 29.0732C43.3392 29.0371 43.7649 28.8594 44.1061 28.5657C44.3321 28.3704 44.5144 28.1297 44.6412 27.8592C44.7679 27.5887 44.8362 27.2945 44.8417 26.9959C44.8492 26.5458 44.7134 26.1049 44.4539 25.737C44.1944 25.3692 43.8247 25.0933 43.3981 24.9494C42.3919 24.5026 38.5793 22.9936 33.5395 23.2617C30.1471 23.4421 26.8848 24.3817 23.844 26.0572C20.9647 27.6441 18.2911 29.8922 15.8638 32.7602C17.0219 33.5842 18.2282 34.3382 19.4764 35.0181C23.5746 30.3471 28.3032 27.8151 33.5719 27.4805C35.5475 27.3606 37.5295 27.5507 39.4463 28.0438Z" fill="#59B2FF"/>
</g>
<path d="M5.84 91.84C4.29333 92.0533 3.01333 92.16 2 92.16C1.65333 92.16 1.48 92.0267 1.48 91.76C1.48 91.1467 1.89333 90.5067 2.72 89.84C3.57333 89.1467 4.94667 88.5467 6.84 88.04C7.69333 85 8.66667 82.2133 9.76 79.68C7.09333 79.8133 4.90667 80.6933 3.2 82.32C2.77333 82.7467 2.42667 83.08 2.16 83.32C1.89333 83.56 1.65333 83.68 1.44 83.68C1.25333 83.68 1.06667 83.52 0.88 83.2C0.693333 82.88 0.6 82.4533 0.6 81.92C0.626667 79.8667 2.01333 78.2 4.76 76.92C7.50667 75.64 10.8933 75.0133 14.92 75.04L26.92 75.24C27.64 75.24 28 75.52 28 76.08C28 76.24 27.8933 76.5333 27.68 76.96C27.4667 77.36 27.28 77.8 27.12 78.28C26.7733 79.24 26.0267 79.72 24.88 79.72H23.6L18.28 79.68H15.2C14.9867 81.2 14.3467 83.68 13.28 87.12L20.6 87.24C21.0267 87.24 21.24 87.4933 21.24 88C21.24 88.16 21.1733 88.44 21.04 88.84C20.9067 89.24 20.7867 89.6533 20.68 90.08C20.4667 90.96 20.0133 91.4 19.32 91.4L13.24 91.12H12.72C12.56 91.12 12.3733 91.1333 12.16 91.16C10.7733 96.2533 10.08 100.28 10.08 103.24C10.08 104.813 8.54667 105.6 5.48 105.6C4.81333 105.6 4.41333 105.267 4.28 104.6C4.17333 103.907 4.12 103 4.12 101.88C4.12 99.48 4.69333 96.1333 5.84 91.84ZM31.7309 100.64C33.8109 100.64 35.8243 99.8133 37.7709 98.16C38.4909 97.5467 39.0776 96.9867 39.5309 96.48C39.9843 95.9467 40.3309 95.68 40.5709 95.68C40.9443 95.68 41.1309 96.0533 41.1309 96.8C41.1309 97.5467 40.9309 98.3867 40.5309 99.32C40.1309 100.227 39.4643 101.12 38.5309 102C36.2376 104.16 33.0909 105.24 29.0909 105.24C25.9176 105.24 23.7576 104.093 22.6109 101.8C22.2109 101 22.0109 99.8533 22.0109 98.36C22.0109 96.8667 22.3043 95.32 22.8909 93.72C23.4776 92.0933 24.2509 90.6933 25.2109 89.52C26.1976 88.3467 27.3309 87.44 28.6109 86.8C29.8909 86.1333 31.2509 85.8 32.6909 85.8C34.1576 85.8 35.2776 86.16 36.0509 86.88C36.8509 87.6 37.2509 88.5333 37.2509 89.68C37.2509 90.8267 36.9576 91.7733 36.3709 92.52C35.8109 93.24 35.0776 93.8533 34.1709 94.36C33.2643 94.84 32.2509 95.28 31.1309 95.68C30.0376 96.0533 28.9576 96.48 27.8909 96.96V97.96C27.9176 98.92 28.3176 99.6 29.0909 100C29.8643 100.4 30.7443 100.613 31.7309 100.64ZM31.0509 89.36C29.6643 89.36 28.7043 90.9733 28.1709 94.2C28.7309 93.8267 29.2509 93.4933 29.7309 93.2C30.2376 92.9067 30.6776 92.6267 31.0509 92.36C31.8509 91.7733 32.2643 91.1067 32.2909 90.36C32.2909 89.6933 31.8776 89.36 31.0509 89.36ZM48.2497 85.64C50.0364 85.6133 51.3697 85.9467 52.2497 86.64C53.1297 87.3067 53.5697 88.28 53.5697 89.56C53.5697 90.8133 53.183 91.8933 52.4097 92.8C51.663 93.68 50.743 94.3067 49.6497 94.68C50.423 95.48 51.1164 96.2933 51.7297 97.12C52.3697 97.9467 52.6897 98.8133 52.6897 99.72C52.6897 101.507 51.983 102.893 50.5697 103.88C49.1564 104.84 47.183 105.32 44.6497 105.32C42.143 105.32 40.263 104.827 39.0097 103.84C37.7564 102.827 37.1297 101.693 37.1297 100.44C37.1297 99.16 37.4364 98 38.0497 96.96C38.6897 95.92 39.3697 95.4 40.0897 95.4C40.5164 95.4 40.823 95.56 41.0097 95.88C41.1964 96.1733 41.543 97.0533 42.0497 98.52C42.2364 99.0533 42.543 99.56 42.9697 100.04C43.9564 101.133 45.5164 101.68 47.6497 101.68C47.3297 100.667 46.8097 99.8 46.0897 99.08C45.3964 98.3333 44.703 97.6133 44.0097 96.92C43.3164 96.2267 42.703 95.4933 42.1697 94.72C41.6364 93.92 41.3697 92.9867 41.3697 91.92C41.3697 90 42.0897 88.44 43.5297 87.24C44.8897 86.1733 46.463 85.64 48.2497 85.64ZM48.0897 93.04C49.1564 91.8933 49.6897 90.9733 49.6897 90.28C49.6897 89.96 49.5697 89.68 49.3297 89.44C49.1164 89.1733 48.7964 89.04 48.3697 89.04C47.943 89.04 47.5297 89.0933 47.1297 89.2C46.7564 89.3067 46.4497 89.3867 46.2097 89.44C46.2097 90.4533 46.8364 91.6533 48.0897 93.04ZM56.9444 102.84C56.651 102.12 56.4377 101.293 56.3044 100.36C56.171 99.4 56.1044 98.0667 56.1044 96.36C56.1044 94.6533 56.4244 92.3467 57.0644 89.44H55.2644C54.9444 89.44 54.7844 89.3067 54.7844 89.04C54.7844 88.4 54.8377 87.88 54.9444 87.48C55.0777 87.0533 55.371 86.5733 55.8244 86.04H56.7844C57.1577 86.04 57.5577 86.0267 57.9844 86C59.2644 81.8933 60.571 79.84 61.9044 79.84C62.971 79.8667 63.7177 80.5467 64.1444 81.88C64.251 82.2533 64.371 82.6533 64.5044 83.08L62.8644 85.96C64.731 86.0133 65.9044 86.04 66.3844 86.04C66.891 86.04 67.1577 86.0933 67.1844 86.2C67.2377 86.28 67.2644 86.4133 67.2644 86.6C67.2644 87.08 67.1444 87.68 66.9044 88.4C66.691 89.12 66.4377 89.4667 66.1444 89.44L62.1444 89.24C61.5844 92.4933 61.3044 95.1867 61.3044 97.32C61.3044 99.4533 61.611 100.52 62.2244 100.52C62.731 100.52 63.651 100.107 64.9844 99.28C66.3177 98.4267 67.2777 97.6133 67.8644 96.84C68.451 96.0667 68.931 95.68 69.3044 95.68C69.6777 95.68 69.8644 96.1333 69.8644 97.04C69.8644 97.9467 69.5444 98.88 68.9044 99.84C68.2644 100.773 67.451 101.64 66.4644 102.44C65.5044 103.213 64.4244 103.853 63.2244 104.36C62.051 104.867 61.0244 105.12 60.1444 105.12C59.2644 105.12 58.5844 104.92 58.1044 104.52C57.651 104.093 57.2644 103.533 56.9444 102.84ZM72.6797 105.12C70.013 105.12 68.6797 102.627 68.6797 97.64C68.6797 94.92 69.013 92.4533 69.6797 90.24C70.7197 86.8267 71.893 85.12 73.1997 85.12C73.973 85.12 74.5864 85.64 75.0397 86.68C75.413 87.48 75.5864 88.2667 75.5597 89.04C75.5597 90.1067 75.2397 91.9867 74.5997 94.68C73.9864 97.0267 73.6797 98.48 73.6797 99.04C73.6797 99.6 73.813 99.9867 74.0797 100.2C74.373 100.413 74.7064 100.52 75.0797 100.52C75.4797 100.52 75.973 100.267 76.5597 99.76C77.1464 99.2533 77.733 98.7067 78.3197 98.12C78.9064 97.5067 79.4397 96.9467 79.9197 96.44C80.4264 95.9333 80.773 95.68 80.9597 95.68C81.333 95.68 81.5197 96.1333 81.5197 97.04C81.5197 98.9067 80.573 100.733 78.6797 102.52C76.813 104.28 74.813 105.147 72.6797 105.12ZM74.3197 81.88C73.5997 80.8133 73.2397 79.6667 73.2397 78.44C73.2397 77.2133 73.4264 76.2 73.7997 75.4C74.1997 74.5733 74.573 73.9733 74.9197 73.6C75.2664 73.2 75.6664 73 76.1197 73C76.8664 73 77.5464 73.56 78.1597 74.68C78.773 75.7733 79.0797 76.6933 79.0797 77.44C79.0797 78.8267 78.5864 79.92 77.5997 80.72C76.6397 81.4933 75.5464 81.88 74.3197 81.88ZM85.8403 87.4C85.8403 89.1867 85.5203 91.2133 84.8803 93.48C84.9336 94.3333 84.9603 95.16 84.9603 95.96C84.9603 96.76 85.0136 97.4533 85.1203 98.04C85.5203 99.1067 86.027 99.76 86.6403 100C87.1736 100 87.7603 99.5467 88.4003 98.64C89.0403 97.7067 89.6936 96.6 90.3603 95.32C90.0403 94.0933 89.8803 92.9333 89.8803 91.84C89.8803 89.92 90.1736 88.52 90.7603 87.64C91.4803 86.52 92.5736 85.96 94.0403 85.96C95.507 85.96 96.4803 86.52 96.9603 87.64C97.147 88.0667 97.2403 88.5467 97.2403 89.08C97.2403 90.04 97.0003 91.0267 96.5203 92.04C96.0403 93.0267 95.267 94.3333 94.2003 95.96C94.6803 97.3733 95.4003 98.08 96.3603 98.08C97.5336 98.0533 98.547 97.64 99.4003 96.84C99.7203 96.52 99.987 96.24 100.2 96C100.44 95.76 100.68 95.64 100.92 95.64C101.294 95.64 101.48 96.08 101.48 96.96C101.48 98.6133 101 99.8267 100.04 100.6C99.107 101.347 97.9203 101.72 96.4803 101.72C94.587 101.72 93.0803 100.893 91.9603 99.24C88.8403 103.293 86.227 105.32 84.1203 105.32C83.2936 105.32 82.4803 104.147 81.6803 101.8C80.8803 99.4533 80.267 96.28 79.8403 92.28C79.5203 89.7467 79.707 87.9333 80.4003 86.84C80.987 85.9867 82.1336 85.56 83.8403 85.56C84.4803 85.56 84.9736 85.76 85.3203 86.16C85.667 86.5333 85.8403 86.9467 85.8403 87.4ZM104.477 105.12C101.81 105.12 100.477 102.627 100.477 97.64C100.477 94.92 100.81 92.4533 101.477 90.24C102.517 86.8267 103.69 85.12 104.997 85.12C105.77 85.12 106.383 85.64 106.837 86.68C107.21 87.48 107.383 88.2667 107.357 89.04C107.357 90.1067 107.037 91.9867 106.397 94.68C105.783 97.0267 105.477 98.48 105.477 99.04C105.477 99.6 105.61 99.9867 105.877 100.2C106.17 100.413 106.503 100.52 106.877 100.52C107.277 100.52 107.77 100.267 108.357 99.76C108.943 99.2533 109.53 98.7067 110.117 98.12C110.703 97.5067 111.237 96.9467 111.717 96.44C112.223 95.9333 112.57 95.68 112.757 95.68C113.13 95.68 113.317 96.1333 113.317 97.04C113.317 98.9067 112.37 100.733 110.477 102.52C108.61 104.28 106.61 105.147 104.477 105.12ZM106.117 81.88C105.397 80.8133 105.037 79.6667 105.037 78.44C105.037 77.2133 105.223 76.2 105.597 75.4C105.997 74.5733 106.37 73.9733 106.717 73.6C107.063 73.2 107.463 73 107.917 73C108.663 73 109.343 73.56 109.957 74.68C110.57 75.7733 110.877 76.6933 110.877 77.44C110.877 78.8267 110.383 79.92 109.397 80.72C108.437 81.4933 107.343 81.88 106.117 81.88ZM113.077 102.84C112.784 102.12 112.571 101.293 112.437 100.36C112.304 99.4 112.237 98.0667 112.237 96.36C112.237 94.6533 112.557 92.3467 113.197 89.44H111.397C111.077 89.44 110.917 89.3067 110.917 89.04C110.917 88.4 110.971 87.88 111.077 87.48C111.211 87.0533 111.504 86.5733 111.957 86.04H112.917C113.291 86.04 113.691 86.0267 114.117 86C115.397 81.8933 116.704 79.84 118.037 79.84C119.104 79.8667 119.851 80.5467 120.277 81.88C120.384 82.2533 120.504 82.6533 120.637 83.08L118.997 85.96C120.864 86.0133 122.037 86.04 122.517 86.04C123.024 86.04 123.291 86.0933 123.317 86.2C123.371 86.28 123.397 86.4133 123.397 86.6C123.397 87.08 123.277 87.68 123.037 88.4C122.824 89.12 122.571 89.4667 122.277 89.44L118.277 89.24C117.717 92.4933 117.437 95.1867 117.437 97.32C117.437 99.4533 117.744 100.52 118.357 100.52C118.864 100.52 119.784 100.107 121.117 99.28C122.451 98.4267 123.411 97.6133 123.997 96.84C124.584 96.0667 125.064 95.68 125.437 95.68C125.811 95.68 125.997 96.1333 125.997 97.04C125.997 97.9467 125.677 98.88 125.037 99.84C124.397 100.773 123.584 101.64 122.597 102.44C121.637 103.213 120.557 103.853 119.357 104.36C118.184 104.867 117.157 105.12 116.277 105.12C115.397 105.12 114.717 104.92 114.237 104.52C113.784 104.093 113.397 103.533 113.077 102.84ZM133.333 100.64C135.413 100.64 137.426 99.8133 139.373 98.16C140.093 97.5467 140.679 96.9867 141.133 96.48C141.586 95.9467 141.933 95.68 142.173 95.68C142.546 95.68 142.733 96.0533 142.733 96.8C142.733 97.5467 142.533 98.3867 142.133 99.32C141.733 100.227 141.066 101.12 140.133 102C137.839 104.16 134.693 105.24 130.693 105.24C127.519 105.24 125.359 104.093 124.213 101.8C123.813 101 123.613 99.8533 123.613 98.36C123.613 96.8667 123.906 95.32 124.493 93.72C125.079 92.0933 125.853 90.6933 126.813 89.52C127.799 88.3467 128.933 87.44 130.213 86.8C131.493 86.1333 132.853 85.8 134.293 85.8C135.759 85.8 136.879 86.16 137.653 86.88C138.453 87.6 138.853 88.5333 138.853 89.68C138.853 90.8267 138.559 91.7733 137.973 92.52C137.413 93.24 136.679 93.8533 135.773 94.36C134.866 94.84 133.853 95.28 132.733 95.68C131.639 96.0533 130.559 96.48 129.493 96.96V97.96C129.519 98.92 129.919 99.6 130.693 100C131.466 100.4 132.346 100.613 133.333 100.64ZM132.653 89.36C131.266 89.36 130.306 90.9733 129.773 94.2C130.333 93.8267 130.853 93.4933 131.333 93.2C131.839 92.9067 132.279 92.6267 132.653 92.36C133.453 91.7733 133.866 91.1067 133.893 90.36C133.893 89.6933 133.479 89.36 132.653 89.36Z" fill="#FF598B"/>
<defs>
<clipPath id="clip0_4105_585">
<rect width="45.8507" height="48" fill="white"/>
</clipPath>
</defs>
</svg>
